<?xml version='1.0' encoding='utf-8'?>
<svg xmlns="http://www.w3.org/2000/svg" viewBox="0 0 201.57001 127.64" id="svg2" height="127.64mm" width="201.57001mm" version="1.0"> <metadata id="metadata14"> </metadata> <defs id="defs4"> <clipPath id="clipEmfPath1" clipPathUnits="userSpaceOnUse"> <path id="path7" d="m 4.04729,-0.1499 714.57171,0 0,452.2469 -714.57171,0 z"/> </clipPath> <pattern y="0" x="0" height="6" width="6" patternUnits="userSpaceOnUse" id="EMFhbasepattern"/> </defs> <path transform="scale(0.28222222,0.28222222)" id="path10" d="m 304.184,208.435 c -1.799,0 -3.26,1.462 -3.26,3.261 l 0,13.116 c 0,1.836 1.461,3.298 3.26,3.298 l 26.007,0 c 1.799,0 3.298,-1.462 3.298,-3.298 l 0,-13.116 c 0,-1.799 -1.499,-3.261 -3.298,-3.261 l -26.007,0 z m 86.717,-1.648 c -2.136,0 -3.823,1.723 -3.823,3.822 l 0,15.327 c 0,2.099 1.687,3.823 3.823,3.823 6.258,-1.424 34.514,-6.821 34.252,-11.093 -0.262,-4.272 -23.01,-8.319 -34.252,-11.879 z m 175.345,-2.849 c -15.44,0 -27.919,12.517 -27.919,27.919 0,15.402 12.479,27.919 27.919,27.919 15.402,0 27.919,-12.517 27.919,-27.919 0,-15.402 -12.517,-27.919 -27.919,-27.919 z M 157.32,186.175 c -1.424,0 -2.848,0.525 -3.973,1.649 l -15.889,15.89 c -0.562,0.562 -0.974,1.199 -1.237,1.873 -0.037,0.075 -0.037,0.15 -0.037,0.225 l -0.075,0.075 c -0.3,0.675 -0.45,1.387 -0.45,2.136 l 0,21.698 c 0,2.998 2.436,5.434 5.434,5.434 l 32.491,0 c 2.998,0 5.396,-2.436 5.396,-5.434 l 0,-21.698 c 0,-0.749 -0.15,-1.461 -0.412,-2.136 l -0.075,-0.075 -0.037,-0.225 c -0.263,-0.674 -0.675,-1.311 -1.237,-1.873 l -15.889,-15.89 c -1.125,-1.124 -2.549,-1.649 -4.01,-1.649 z m 35.451,-34.064 c -0.75,0 -1.462,0.15 -2.136,0.412 l -0.113,0.075 -0.187,0.037 c -0.674,0.3 -1.312,0.712 -1.874,1.237 l -15.889,15.927 c -2.211,2.173 -2.211,5.771 0,7.945 l 15.889,15.926 c 0.562,0.525 1.2,0.937 1.874,1.237 l 0.187,0.038 0.113,0.074 c 0.674,0.263 1.386,0.413 2.136,0.413 l 21.698,0 c 2.998,0 5.434,-2.436 5.434,-5.434 l 0,-32.453 c 0,-2.998 -2.436,-5.434 -5.434,-5.434 l -21.698,0 z m -69.778,-0.3 -21.698,0.112 c -2.9983,0.038 -5.3967,2.474 -5.3967,5.472 l 0.2249,32.49 c 0,2.998 2.4358,5.397 5.4338,5.397 l 21.698,-0.15 c 0.749,0 1.462,-0.15 2.136,-0.45 l 0.075,-0.037 0.225,-0.075 c 0.674,-0.263 1.311,-0.675 1.874,-1.237 l 15.814,-16.002 c 2.174,-2.211 2.136,-5.771 -0.075,-7.944 l -16.002,-15.815 c -0.562,-0.562 -1.199,-0.974 -1.873,-1.236 l -0.188,-0.038 -0.112,-0.075 c -0.675,-0.262 -1.387,-0.412 -2.136,-0.412 z m 236.279,-2.436 -1.199,0.15 c -7.12,1.461 -12.442,7.757 -12.442,15.29 0,7.532 5.322,13.79 12.442,15.252 l 1.199,0.187 0,-9.218 -7.158,0 c -0.374,0 -0.637,-0.3 -0.637,-0.638 l 0,-2.623 c 0,-0.337 0.263,-0.637 0.637,-0.637 l 10.381,0 c 0.375,0 0.637,0.3 0.637,0.637 l 0,2.623 0,9.856 1.199,-0.187 c 7.12,-1.462 12.442,-7.72 12.442,-15.252 0,-7.533 -5.322,-13.829 -12.442,-15.29 l -1.199,-0.15 0,9.181 7.158,0 c 0.374,0 0.637,0.3 0.637,0.637 l 0,2.624 c 0,0.337 -0.263,0.637 -0.637,0.637 l -7.758,0 -0.037,0 -2.586,0 c -0.375,0 -0.637,-0.263 -0.637,-0.637 l 0,0 0,-2.624 0,-9.818 z m 269.744,-3.523 c -15.439,0 -27.918,12.517 -27.918,27.919 0,15.402 12.479,27.919 27.918,27.919 15.403,0 27.882,-12.517 27.882,-27.919 0,-15.402 -12.479,-27.919 -27.882,-27.919 z m -125.316,0 c -15.439,0 -27.918,12.517 -27.918,27.919 0,15.402 12.479,27.919 27.918,27.919 15.403,0 27.919,-12.517 27.919,-27.919 0,-15.402 -12.516,-27.919 -27.919,-27.919 z m -142.517,-0.524 c 10.756,0 19.487,8.731 19.487,19.487 0,10.755 -8.731,19.449 -19.487,19.449 -10.755,0 -19.449,-8.694 -19.449,-19.449 0,-10.756 8.694,-19.487 19.449,-19.487 z m -1.836,-1.537 -2.436,0.263 c -9.668,1.948 -16.939,10.53 -16.939,20.798 0,10.268 7.271,18.813 16.939,20.799 l 4.272,0.449 c 0,0.113 0,0.225 0,0.3 l 0.038,0 0,-0.3 4.272,-0.449 c 9.668,-1.986 16.938,-10.531 16.938,-20.799 0,-10.268 -7.27,-18.85 -16.938,-20.798 l -2.436,-0.263 -3.71,0 z M 141.43,111.6 c -2.998,-0.037 -5.471,2.324 -5.546,5.322 l -0.412,21.698 c -0.038,0.749 0.112,1.461 0.375,2.136 l 0.075,0.075 0.037,0.225 c 0.262,0.674 0.637,1.311 1.199,1.873 l 15.59,16.227 c 2.136,2.248 5.696,2.323 7.944,0.187 l 16.227,-15.627 c 0.562,-0.524 0.974,-1.161 1.274,-1.836 l 0.038,-0.187 0.075,-0.113 c 0.299,-0.637 0.449,-1.349 0.487,-2.098 l 0.412,-21.698 c 0.075,-2.998 -2.323,-5.472 -5.321,-5.547 L 141.43,111.6 Z M 566.246,87.7662 c -15.44,0 -27.919,12.5168 -27.919,27.9188 0,15.402 12.479,27.919 27.919,27.919 15.402,0 27.919,-12.517 27.919,-27.919 0,-15.402 -12.517,-27.9188 -27.919,-27.9188 z M 161.592,0.449699 c 13.753,-0.4122241 28.968,1.461521 39.686,6.895381 2.098,1.53647 2.098,7.53242 2.81,10.94272 6.071,4.9466 9.594,5.4713 13.341,11.1675 4.835,14.5402 10.418,42.4216 14.578,44.5577 2.174,1.1617 71.128,1.3865 106.317,1.8737 3.485,1.5365 6.857,2.6232 10.567,3.2978 l 11.205,0.8994 2.211,0 11.205,-0.8994 c 3.71,-0.6746 7.083,-1.7613 10.568,-3.2978 35.189,-0.4872 104.143,-0.712 106.317,-1.8737 4.159,-2.1361 9.743,-30.0175 14.577,-44.5577 3.748,-5.6962 7.271,-6.2209 13.342,-11.1675 0.712,-3.4103 0.674,-9.40625 2.81,-10.94272 10.718,-5.43386 25.933,-7.3076051 39.686,-6.895381 14.615,0.412224 28.481,1.536471 41.672,5.508811 3.073,3.07294 1.911,7.60739 2.848,11.39239 5.247,3.8224 13.529,7.6449 15.927,12.1419 4.684,14.7276 6.521,29.043 9.781,43.5458 18.738,16.6763 35.826,35.9384 44.033,55.6504 17.164,56.699 27.769,151.586 42.084,227.248 5.247,44.183 -22.597,76.449 -45.457,88.291 -22.822,11.842 -60.259,11.017 -91.588,-17.164 -26.42,-32.378 -92.339,-151.249 -100.583,-152.523 -7.645,-2.136 -61.946,-1.012 -102.157,-1.386 l -32.34,0 -102.157,1.386 C 234.63,275.815 168.712,394.686 142.292,427.064 110.963,455.245 73.5258,456.07 50.7036,444.228 27.8439,432.386 0,400.12 5.20901,355.937 19.5619,280.275 30.1673,185.388 47.3308,128.689 c 8.207,-19.712 25.2956,-38.9741 44.033,-55.6504 3.2604,-14.5028 5.0966,-28.8182 9.7812,-43.5458 2.398,-4.497 10.68,-8.3195 15.927,-12.1419 0.937,-3.785 -0.225,-8.31945 2.848,-11.39239 13.191,-3.97234 27.057,-5.096587 41.672,-5.508811 z" clip-path="url(#clipEmfPath1)" style="fill:#000000;fill-opacity:1;fill-rule:evenodd;stroke:none"/> </svg>